REM DIRINDEX 1\6,1\2\7,1\2\8,1\2\9,1\3\10,1\3\11,1\4\12,1\4\13,1\4\14,1\5\15,1\5\16,1\5\17
REM DIRNAME cjc041,folder01,folder02,folder03,folder04,folder05,folder06,folder07,folder08,folder09,folder10,folder11,folder12,folder13,folder14,folder15,folder16
TITLE ""
FILE "3Q_t_0392-0407.mp3" MP3
  TRACK 01 AUDIO
    TITLE "10:cjc041_2391"
    INDEX 01 00:00:00
  TRACK 02 AUDIO
    TITLE "0:"
    INDEX 01 00:01:05
  TRACK 03 AUDIO
    TITLE "11:cjc041_2392"
    INDEX 01 00:01:62
  TRACK 04 AUDIO
    TITLE "0:"
    INDEX 01 00:04:11
  TRACK 05 AUDIO
    TITLE "10:cjc041_2393"
    INDEX 01 00:04:64
  TRACK 06 AUDIO
    TITLE "0:"
    INDEX 01 00:06:14
  TRACK 07 AUDIO
    TITLE "11:cjc041_2394"
    INDEX 01 00:06:71
  TRACK 08 AUDIO
    TITLE "0:"
    INDEX 01 00:09:30
  TRACK 09 AUDIO
    TITLE "10:cjc041_2395"
    INDEX 01 00:10:10
  TRACK 10 AUDIO
    TITLE "0:"
    INDEX 01 00:11:15
  TRACK 11 AUDIO
    TITLE "11:cjc041_2396"
    INDEX 01 00:11:62
  TRACK 12 AUDIO
    TITLE "0:"
    INDEX 01 00:13:20
  TRACK 13 AUDIO
    TITLE "10:cjc041_2397"
    INDEX 01 00:13:71
  TRACK 14 AUDIO
    TITLE "0:"
    INDEX 01 00:15:11
  TRACK 15 AUDIO
    TITLE "11:cjc041_2398"
    INDEX 01 00:15:62
  TRACK 16 AUDIO
    TITLE "0:"
    INDEX 01 00:16:53
  TRACK 17 AUDIO
    TITLE "10:cjc041_2399"
    INDEX 01 00:17:27
  TRACK 18 AUDIO
    TITLE "0:"
    INDEX 01 00:18:44
  TRACK 19 AUDIO
    TITLE "11:cjc041_2400"
    INDEX 01 00:19:16
  TRACK 20 AUDIO
    TITLE "0:"
    INDEX 01 00:20:63
  TRACK 21 AUDIO
    TITLE "10:cjc041_2401"
    INDEX 01 00:21:39
  TRACK 22 AUDIO
    TITLE "0:"
    INDEX 01 00:22:50
  TRACK 23 AUDIO
    TITLE "11:cjc041_2402"
    INDEX 01 00:23:34
  TRACK 24 AUDIO
    TITLE "0:"
    INDEX 01 00:24:35
  TRACK 25 AUDIO
    TITLE "10:cjc041_2403"
    INDEX 01 00:25:15
  TRACK 26 AUDIO
    TITLE "0:"
    INDEX 01 00:26:20
  TRACK 27 AUDIO
    TITLE "11:cjc041_2404"
    INDEX 01 00:27:00
  TRACK 28 AUDIO
    TITLE "0:"
    INDEX 01 00:28:17
  TRACK 29 AUDIO
    TITLE "10:cjc041_2405"
    INDEX 01 00:28:66
  TRACK 30 AUDIO
    TITLE "0:"
    INDEX 01 00:30:20
  TRACK 31 AUDIO
    TITLE "11:cjc041_2406"
    INDEX 01 00:30:71
  TRACK 32 AUDIO
    TITLE "0:"
    INDEX 01 00:32:11
  TRACK 33 AUDIO
    TITLE "10:cjc041_2407"
    INDEX 01 00:32:66
  TRACK 34 AUDIO
    TITLE "0:"
    INDEX 01 00:34:08
  TRACK 35 AUDIO
    TITLE "11:cjc041_2408"
    INDEX 01 00:34:65
  TRACK 36 AUDIO
    TITLE "0:"
    INDEX 01 00:37:14
  TRACK 37 AUDIO
    TITLE "10:cjc041_2409"
    INDEX 01 00:37:65
  TRACK 38 AUDIO
    TITLE "0:"
    INDEX 01 00:39:33
  TRACK 39 AUDIO
    TITLE "11:cjc041_2410"
    INDEX 01 00:40:11
  TRACK 40 AUDIO
    TITLE "0:"
    INDEX 01 00:42:33
  TRACK 41 AUDIO
    TITLE "10:cjc041_2411"
    INDEX 01 00:43:11
  TRACK 42 AUDIO
    TITLE "0:"
    INDEX 01 00:44:44
  TRACK 43 AUDIO
    TITLE "11:cjc041_2412"
    INDEX 01 00:45:24
  TRACK 44 AUDIO
    TITLE "0:"
    INDEX 01 00:46:68
  TRACK 45 AUDIO
    TITLE "10:cjc041_2413"
    INDEX 01 00:47:44
  TRACK 46 AUDIO
    TITLE "0:"
    INDEX 01 00:48:59
  TRACK 47 AUDIO
    TITLE "11:cjc041_2414"
    INDEX 01 00:49:35
  TRACK 48 AUDIO
    TITLE "0:"
    INDEX 01 00:52:08
  TRACK 49 AUDIO
    TITLE "10:cjc041_2415"
    INDEX 01 00:52:65
  TRACK 50 AUDIO
    TITLE "0:"
    INDEX 01 00:54:15
  TRACK 51 AUDIO
    TITLE "11:cjc041_2416"
    INDEX 01 00:54:64
  TRACK 52 AUDIO
    TITLE "0:"
    INDEX 01 00:56:00
  TRACK 53 AUDIO
    TITLE "10:cjc041_2417"
    INDEX 01 00:56:53
  TRACK 54 AUDIO
    TITLE "0:"
    INDEX 01 00:57:68
  TRACK 55 AUDIO
    TITLE "11:cjc041_2418"
    INDEX 01 00:58:46
  TRACK 56 AUDIO
    TITLE "0:"
    INDEX 01 00:59:47
  TRACK 57 AUDIO
    TITLE "10:cjc041_2419"
    INDEX 01 01:00:29
  TRACK 58 AUDIO
    TITLE "0:"
    INDEX 01 01:01:66
  TRACK 59 AUDIO
    TITLE "11:cjc041_2420"
    INDEX 01 01:02:36
  TRACK 60 AUDIO
    TITLE "0:"
    INDEX 01 01:05:26
  TRACK 61 AUDIO
    TITLE "10:cjc041_2421"
    INDEX 01 01:06:00
  TRACK 62 AUDIO
    TITLE "0:"
    INDEX 01 01:07:08
  TRACK 63 AUDIO
    TITLE "11:cjc041_2422"
    INDEX 01 01:07:64
  TRACK 64 AUDIO
    TITLE "0:"
    INDEX 01 01:08:56
